{"asset":{"generator":"Khronos glTF Spline I/O v0.0.1","version":"2.0"},"scenes":[{"nodes":[0]}],"nodes":[{"name":"","children":[1,2,3,4]},{"name":"Group","matrix":[1,0,0,0,0,1,0,0,0,0,1,0,-21.733299077372862,77.6028784253334,-5,1],"children":[5]},{"name":"Rectangle","matrix":[0,-4.440892098500628e-16,1.0000000000000004,0,1.0000000000000004,0,0,0,0,1.0000000000000004,4.440892098500628e-16,0,-23.729141585507108,25.20600313742173,18.500000000000007,1],"mesh":0},{"name":"Directional Light","translation":[-66.42021390384369,164.29277317747582,0],"rotation":[-0.6941005418844725,-0.13499791759757518,0.1349979175975752,0.6941005418844725],"extensions":{"KHR_lights_punctual":{"light":0}}},{"name":"personal","camera":0,"translation":[5.57868084220727,123.3680526179206,1090.3397968782751],"rotation":[-0.017350762323797658,0.014688986711366925,0.00025493101012727534,0.9997415264588925]},{"name":"Lathe","matrix":[0.9721067138386178,-0.008094413967861785,-0.0006834859140367779,0,-0.00377549756251028,-1.018503961354612,-0.0031810533754062257,0,0.00853148840548531,0.001089495029051025,-0.9926515421783156,0,-2.7667009226271424,-15.85040624185187,17.499406681060755,0.9999999999999993],"mesh":1}],"cameras":[{"type":"perspective","perspective":{"aspectRatio":2.071197411003236,"yfov":0.7853981633974483,"znear":5,"zfar":500000}}],"meshes":[{"primitives":[{"attributes":{"POSITION":1,"NORMAL":2,"TEXCOORD_0":3},"indices":0}]},{"primitives":[{"attributes":{"POSITION":5,"TEXCOORD_0":6,"NORMAL":7},"indices":4}]}],"buffers":[{"uri":"data:application/octet-stream;base64,","byteLength":44000},{"uri":"data:application/octet-stream;base64,","byteLength":192456}],"bufferViews":[{"buffer":0,"byteOffset":0,"byteLength":12000,"target":34963},{"buffer":0,"byteOffset":12000,"byteLength":12000,"target":34962},{"buffer":0,"byteOffset":24000,"byteLength":12000,"target":34962},{"buffer":0,"byteOffset":36000,"byteLength":8000,"target":34962},{"buffer":1,"byteOffset":0,"byteLength":51336,"target":34963},{"buffer":1,"byteOffset":51336,"byteLength":52920,"target":34962},{"buffer":1,"byteOffset":104256,"byteLength":35280,"target":34962},{"buffer":1,"byteOffset":139536,"byteLength":52920,"target":34962}],"accessors":[{"bufferView":0,"byteOffset":0,"componentType":5125,"count":3000,"type":"SCALAR","min":[0],"max":[3]},{"bufferView":1,"byteOffset":0,"componentType":5126,"count":1000,"type":"VEC3","min":[-76.5,-74.5,0],"max":[76.5,74.5,0]},{"bufferView":2,"byteOffset":0,"componentType":5126,"count":1000,"type":"VEC3","min":[0,0,0],"max":[0,0,1]},{"bufferView":3,"byteOffset":0,"componentType":5126,"count":1000,"type":"VEC2","min":[0,0],"max":[1,1]},{"bufferView":4,"byteOffset":0,"componentType":5123,"count":25668,"type":"SCALAR","min":[0],"max":[4409]},{"bufferView":5,"byteOffset":0,"componentType":5126,"count":4410,"type":"VEC3","min":[-38.15788650512695,-45.46853256225586,-38.12822341918945],"max":[38.15788650512695,32.86109924316406,38.16777801513672]},{"bufferView":6,"byteOffset":0,"componentType":5126,"count":4410,"type":"VEC2","min":[0,0],"max":[1,1]},{"bufferView":7,"byteOffset":0,"componentType":5126,"count":4410,"type":"VEC3","min":[-0.9996132254600525,-0.9999752640724182,-0.9988561272621155],"max":[0.9996265769004822,0.9992012977600098,0.9998781681060791]}],"extensions":{"KHR_lights_punctual":{"lights":[{"type":"directional","name":"Directional Light","color":[0.978802579120525,0.9022849250712195,0.10928378310568954],"intensity":2.5}]}},"extensionsUsed":["KHR_lights_punctual"]}